<?xml version="1.0" standalone="no"?>
<!DOCTYPE svg PUBLIC "-//W3C//DTD SVG 20010904//EN"
 "http://www.w3.org/TR/2001/REC-SVG-20010904/DTD/svg10.dtd">
<svg version="1.0" xmlns="http://www.w3.org/2000/svg"
 width="450.000000pt" height="450.000000pt" viewBox="0 0 450.000000 450.000000"
 preserveAspectRatio="xMidYMid meet">
<metadata>
Created by potrace 1.10, written by Peter Selinger 2001-2011
</metadata>
<g transform="translate(0.000000,450.000000) scale(0.100000,-0.100000)"
fill="#000000" stroke="none">
<path d="M2335 2790 c-70 -35 -87 -63 -84 -137 l2 -65 -84 -60 c-95 -69 -173
-108 -229 -115 -33 -5 -43 -1 -68 23 -19 19 -31 44 -36 74 -9 58 -28 87 -64
95 -38 8 -77 -8 -113 -47 -40 -44 -37 -54 8 -23 21 14 52 25 70 25 31 0 33 -2
52 -68 52 -172 178 -171 406 4 134 101 146 103 260 39 119 -68 122 -71 102
-93 -21 -23 -21 -36 -2 -52 13 -11 21 -9 45 8 36 27 33 27 75 0 31 -21 34 -26
29 -59 -5 -28 -2 -37 11 -43 20 -7 45 10 45 30 0 18 1 18 51 -11 38 -21 44
-29 44 -57 0 -27 4 -34 23 -36 12 -2 22 0 22 5 1 25 17 32 50 23 36 -10 100 3
100 20 0 5 -15 13 -34 20 -18 6 -51 24 -72 40 -22 16 -43 30 -47 30 -5 0 -29
14 -54 31 -35 24 -44 27 -41 14 2 -14 31 -34 86 -62 2 -1 -1 -11 -8 -22 l-11
-21 -47 27 c-26 14 -48 28 -50 29 -2 1 4 19 13 40 15 38 15 40 -6 56 -31 26
-37 23 -49 -22 l-11 -40 -34 23 -34 22 27 22 c15 12 33 20 41 17 11 -4 11 0
-1 18 -27 41 -43 44 -81 15 -20 -15 -38 -27 -41 -27 -2 0 -48 29 -101 65 -91
62 -115 71 -177 66 -25 -2 -28 1 -30 31 -4 79 13 112 73 144 24 12 28 11 44
-6 10 -11 13 -20 7 -20 -6 0 -20 -10 -32 -22 l-20 -22 31 -32 c17 -17 43 -34
57 -37 15 -3 48 -20 74 -37 26 -18 54 -33 62 -34 8 -1 23 -13 34 -26 11 -14
24 -20 31 -15 9 5 3 17 -21 44 -19 20 -57 65 -85 101 -100 127 -136 146 -208
110z m238 -185 l21 -30 -37 28 c-20 16 -61 39 -90 51 -47 21 -97 61 -86 69 2
2 15 11 29 21 l25 17 59 -63 c32 -35 68 -76 79 -93z m79 -142 c-23 -22 -58
-43 -72 -43 -13 0 11 40 25 40 5 0 21 9 35 20 30 23 40 9 12 -17z m111 -74
c-3 -10 -9 -19 -14 -19 -5 0 -9 -7 -9 -17 0 -9 -3 -13 -7 -10 -3 4 0 25 7 47
13 39 33 38 23 -1z m225 -111 l37 -17 -30 0 c-16 -1 -40 2 -52 5 -19 5 -20 9
-10 32 8 16 13 20 15 11 1 -8 19 -22 40 -31z m-85 1 c-9 -9 -12 -7 -10 9 1 14
5 18 11 12 7 -7 6 -14 -1 -21z"/>
<path d="M2310 2695 c0 -16 30 -55 42 -55 7 0 5 6 -4 13 -8 6 -20 21 -26 32
-6 11 -12 15 -12 10z"/>
<path d="M2420 2616 c0 -2 7 -7 16 -10 8 -3 12 -2 9 4 -6 10 -25 14 -25 6z"/>
<path d="M2460 2597 c0 -3 12 -12 26 -22 15 -9 23 -12 20 -6 -7 11 -46 35 -46
28z"/>
<path d="M1730 2543 c0 -4 5 -15 10 -23 8 -13 10 -13 10 2 0 9 -4 20 -10 23
-5 3 -10 3 -10 -2z"/>
<path d="M1540 2532 c-14 -1 -88 -6 -165 -11 l-140 -8 193 -2 c151 -1 193 2
190 12 -5 12 -30 15 -78 9z"/>
<path d="M2550 2536 c0 -2 8 -10 18 -17 15 -13 16 -12 3 4 -13 16 -21 21 -21
13z"/>
<path d="M1680 2520 c-24 -8 -23 -8 8 -9 17 -1 32 4 32 9 0 11 -5 11 -40 0z"/>
<path d="M2235 2483 c-39 -26 -92 -60 -120 -75 -60 -33 -55 -36 11 -6 27 12
53 21 57 20 5 -1 6 2 2 8 -3 5 1 10 9 10 9 0 16 4 16 9 0 5 12 14 28 20 32 14
92 61 77 61 -6 0 -42 -21 -80 -47z"/>
<path d="M1208 2513 c7 -3 16 -2 19 1 4 3 -2 6 -13 5 -11 0 -14 -3 -6 -6z"/>
<path d="M2332 2511 c-30 -19 -8 -45 48 -58 60 -13 82 -5 60 22 -16 19 -63 45
-82 45 -7 0 -19 -4 -26 -9z m58 -31 c0 -5 -2 -10 -4 -10 -3 0 -8 5 -11 10 -3
6 -1 10 4 10 6 0 11 -4 11 -10z"/>
<path d="M1225 2490 c3 -5 24 -10 45 -10 21 0 42 5 45 10 4 6 -13 10 -45 10
-32 0 -49 -4 -45 -10z"/>
<path d="M1754 2488 c3 -7 9 -21 12 -30 4 -10 10 -18 15 -18 5 0 3 14 -6 30
-15 28 -33 44 -21 18z"/>
<path d="M2454 2491 c4 -6 21 -18 37 -26 17 -9 27 -21 23 -27 -4 -7 -3 -8 4
-4 20 12 14 21 -30 46 -22 12 -38 18 -34 11z"/>
<path d="M1332 2478 c-16 -16 -15 -45 1 -55 6 -4 63 -10 126 -13 92 -4 116 -8
124 -22 8 -12 7 -21 -2 -32 -11 -13 -36 -16 -136 -16 -110 0 -124 -2 -141 -21
-14 -15 -16 -24 -8 -37 9 -14 32 -18 125 -22 120 -5 139 -10 139 -39 0 -34
-21 -41 -132 -41 -106 0 -109 -1 -120 -25 -20 -44 1 -55 109 -55 89 0 95 -1
119 -27 13 -14 23 -29 21 -32 -2 -3 -9 -19 -17 -36 -12 -29 -14 -30 -89 -31
-110 -1 -365 -16 -371 -22 -3 -2 102 -2 232 0 131 3 240 7 242 9 2 2 7 27 11
55 6 46 4 54 -18 78 -24 25 -31 27 -116 28 -63 0 -94 5 -102 14 -17 21 6 25
110 21 111 -4 131 6 131 62 0 51 -21 60 -145 63 -143 4 -127 22 23 28 115 5
125 7 143 29 26 32 24 56 -6 79 -21 17 -42 20 -127 21 -56 1 -103 3 -105 5 -2
2 -1 9 2 17 4 12 28 13 133 6 70 -4 149 -5 176 -2 39 5 51 3 63 -12 14 -17 14
-17 9 0 -3 10 -6 22 -6 27 0 14 -384 12 -398 -2z"/>
<path d="M1029 2464 c-25 -30 1 -49 72 -52 76 -4 105 2 113 24 12 32 -13 44
-94 44 -59 0 -81 -4 -91 -16z"/>
<path d="M1740 2425 c0 -19 67 -88 108 -112 42 -25 58 -28 152 -30 82 -2 119
2 168 17 35 11 76 21 90 21 17 1 20 3 10 6 -10 2 -66 -5 -125 -18 -185 -37
-298 -13 -368 79 -19 24 -35 42 -35 37z"/>
<path d="M2510 2417 c0 -18 21 -47 43 -57 l22 -11 -21 18 c-12 10 -26 27 -32
38 -6 11 -12 16 -12 12z"/>
<path d="M2253 2383 c9 -2 23 -2 30 0 6 3 -1 5 -18 5 -16 0 -22 -2 -12 -5z"/>
<path d="M2323 2383 c9 -2 25 -2 35 0 9 3 1 5 -18 5 -19 0 -27 -2 -17 -5z"/>
<path d="M2596 2375 c-23 -17 -14 -20 15 -5 14 8 27 6 51 -5 l33 -16 -25 20
c-30 24 -48 26 -74 6z"/>
<path d="M2035 2370 c-16 -7 -17 -9 -3 -9 9 -1 20 4 23 9 7 11 7 11 -20 0z"/>
<path d="M2175 2370 c-25 -11 1 -11 35 0 20 6 21 8 5 8 -11 0 -29 -3 -40 -8z"/>
<path d="M2388 2373 c7 -3 16 -2 19 1 4 3 -2 6 -13 5 -11 0 -14 -3 -6 -6z"/>
<path d="M2510 2322 c123 -60 191 -90 227 -97 15 -4 -6 8 -47 25 -41 17 -116
51 -167 75 -51 25 -96 45 -100 44 -4 0 35 -21 87 -47z"/>
<path d="M2043 2339 c-18 -5 -33 -12 -33 -14 0 -6 58 5 85 16 20 8 20 8 0 7
-11 0 -35 -4 -52 -9z"/>
<path d="M2333 2323 c9 -2 23 -2 30 0 6 3 -1 5 -18 5 -16 0 -22 -2 -12 -5z"/>
<path d="M652 2308 c-35 -35 2 -58 90 -58 74 0 91 9 86 41 -3 23 -7 24 -83 27
-54 2 -84 -1 -93 -10z"/>
<path d="M957 2313 c-14 -13 -6 -43 13 -53 11 -6 50 -10 87 -8 69 3 93 18 80
52 -5 13 -22 16 -90 16 -46 0 -87 -3 -90 -7z"/>
<path d="M2384 2311 c5 -8 -11 -11 -51 -12 -63 -1 -82 -3 -128 -19 l-30 -10
30 5 c73 13 215 17 244 7 38 -14 40 -7 4 11 -44 22 -77 31 -69 18z"/>
<path d="M1622 2293 c-34 -27 -49 -143 -30 -233 20 -99 31 -102 328 -111 256
-8 259 -9 530 -68 286 -62 306 -65 460 -65 162 0 293 15 421 49 98 25 226 72
235 86 6 11 -10 12 -20 2 -4 -5 -11 -8 -14 -9 -4 0 -25 -8 -47 -18 -77 -33
-123 -39 -295 -34 -93 2 -167 2 -165 0 3 -3 69 -8 147 -11 l143 -6 -87 -17
c-48 -10 -111 -18 -142 -18 -53 0 -265 25 -316 37 -14 3 -22 3 -19 0 6 -7 138
-33 199 -40 19 -2 -9 -5 -63 -5 -116 -2 -221 17 -452 83 -88 25 -203 52 -255
61 -52 8 -95 16 -95 17 0 1 -13 29 -30 61 -40 81 -144 185 -220 222 -77 37
-178 46 -213 17z m175 -27 c15 -8 21 -15 13 -16 -8 0 12 -17 45 -39 61 -38
108 -89 139 -148 20 -40 31 -43 22 -7 -5 17 -3 23 4 19 5 -3 10 -17 10 -31 0
-14 4 -23 9 -20 5 3 11 -3 14 -14 3 -11 0 -20 -6 -21 -7 0 -3 -4 8 -9 13 -5
-29 -9 -115 -11 -74 -1 -144 -3 -155 -4 -11 -1 -33 3 -50 8 -44 13 -58 15 -79
16 -11 1 -16 4 -13 7 4 4 -3 20 -15 36 -18 27 -20 39 -15 121 5 103 11 124 35
130 32 9 120 -1 149 -17z"/>
<path d="M1790 2225 c0 -10 55 -54 68 -55 6 0 12 -7 12 -16 0 -8 4 -13 9 -9 5
3 12 -4 16 -15 3 -11 14 -20 22 -20 9 0 13 -3 10 -6 -3 -4 5 -15 18 -26 13
-10 27 -27 30 -38 6 -20 25 -28 25 -11 0 5 -18 33 -40 62 -51 68 -170 162
-170 134z"/>
<path d="M1730 1989 c0 -5 5 -7 10 -4 6 3 10 8 10 11 0 2 -4 4 -10 4 -5 0 -10
-5 -10 -11z"/>
<path d="M1770 1989 c0 -5 5 -7 10 -4 6 3 10 8 10 11 0 2 -4 4 -10 4 -5 0 -10
-5 -10 -11z"/>
<path d="M1985 1990 c3 -5 8 -10 11 -10 2 0 4 5 4 10 0 6 -5 10 -11 10 -5 0
-7 -4 -4 -10z"/>
<path d="M2770 2305 c0 -7 61 -37 66 -33 2 3 -12 12 -31 21 -19 9 -35 15 -35
12z"/>
<path d="M2680 2291 c0 -5 7 -12 16 -15 14 -5 15 -4 4 9 -14 17 -20 19 -20 6z"/>
<path d="M2100 2261 c0 -4 -20 -14 -45 -21 -25 -7 -48 -16 -51 -21 -7 -12 92
-121 139 -152 40 -26 47 -20 7 7 -19 13 -58 50 -86 83 l-52 59 60 17 c32 10
56 22 53 27 -8 12 -25 13 -25 1z"/>
<path d="M3066 2261 c10 -10 72 -26 63 -17 -4 4 -21 11 -39 16 -19 5 -29 6
-24 1z"/>
<path d="M2821 2244 c0 -11 3 -14 6 -6 3 7 2 16 -1 19 -3 4 -6 -2 -5 -13z"/>
<path d="M2173 2195 c26 -26 50 -46 52 -43 2 2 -19 23 -48 47 l-52 44 48 -48z"/>
<path d="M3030 2223 c-27 -19 -134 -24 -220 -11 l-45 7 50 -14 c28 -7 67 -14
87 -14 20 -1 39 -7 41 -13 4 -10 6 -10 6 -1 1 7 18 15 39 19 20 4 46 13 58 21
18 11 27 11 61 -1 21 -8 74 -22 116 -31 45 -10 74 -21 71 -27 -4 -7 0 -7 12 0
11 5 26 12 34 16 8 3 3 4 -13 2 -15 -2 -30 1 -33 5 -3 5 -16 9 -29 9 -13 0
-59 11 -102 25 -93 30 -101 30 -133 8z"/>
<path d="M3158 2229 c27 -10 122 -26 207 -34 74 -7 161 -32 198 -58 38 -26 49
-11 13 18 -38 30 -86 42 -226 55 -63 6 -133 15 -155 20 -50 12 -67 12 -37 -1z"/>
<path d="M1339 2225 c-2 -2 -71 -6 -154 -10 -82 -4 -153 -12 -156 -18 -4 -5
-18 -7 -32 -3 -14 3 -28 2 -31 -3 -3 -5 40 -9 97 -10 56 -1 132 -4 168 -7 44
-4 69 -3 73 5 5 8 -30 11 -125 11 -73 0 -130 2 -127 5 2 3 101 5 219 6 201 1
241 8 123 22 -29 3 -53 4 -55 2z"/>
<path d="M2928 2223 c6 -2 18 -2 25 0 6 3 1 5 -13 5 -14 0 -19 -2 -12 -5z"/>
<path d="M2510 2193 c-45 -3 -60 -7 -50 -13 10 -7 1 -9 -30 -6 -35 3 -38 2
-15 -4 19 -5 23 -8 11 -9 -11 0 -17 -3 -14 -6 5 -5 131 22 163 35 11 5 16 8
10 7 -5 0 -39 -2 -75 -4z"/>
<path d="M2323 2163 c9 -2 25 -2 35 0 9 3 1 5 -18 5 -19 0 -27 -2 -17 -5z"/>
<path d="M2890 2165 c-8 -2 -71 -11 -140 -20 -103 -14 -480 -86 -515 -99 -5
-2 44 -1 110 2 125 5 254 -7 323 -31 34 -12 42 -12 46 -1 7 19 123 103 174
126 54 24 55 34 2 23z m-100 -40 c0 -15 -87 -85 -105 -84 -11 0 -48 6 -83 12
-56 11 -61 14 -50 29 8 10 34 19 68 22 30 4 75 10 100 15 59 11 70 12 70 6z
m-255 -45 c-3 -5 -12 -10 -18 -10 -7 0 -6 4 3 10 19 12 23 12 15 0z"/>
<path d="M3345 2149 c-37 -25 -229 -122 -275 -137 -18 -7 -31 -14 -28 -17 14
-15 354 129 393 166 19 19 -61 8 -90 -12z"/>
<path d="M2253 2153 c9 -2 25 -2 35 0 9 3 1 5 -18 5 -19 0 -27 -2 -17 -5z"/>
<path d="M2893 2121 c-34 -22 -87 -67 -120 -100 l-58 -61 -55 21 c-70 27 -188
49 -248 48 -35 -1 -27 -4 34 -10 69 -7 203 -40 256 -63 12 -6 33 10 81 61 36
37 69 64 73 60 4 -4 -3 -18 -16 -32 -13 -14 -21 -27 -18 -30 2 -3 19 16 38 41
18 25 51 59 73 75 59 43 30 35 -40 -10z"/>
<path d="M3007 2138 c-4 -14 -19 -41 -34 -60 -23 -27 -23 -30 -4 -13 27 24 54
72 48 88 -2 7 -7 0 -10 -15z"/>
<path d="M2360 2143 c-8 -2 -21 -7 -29 -9 -8 -2 -12 -7 -9 -9 3 -3 22 1 44 9
35 13 30 21 -6 9z"/>
<path d="M3230 2124 c-25 -13 -34 -22 -20 -18 25 7 70 33 70 40 0 6 -1 5 -50
-22z"/>
<path d="M3443 2120 c-23 -15 -95 -45 -160 -66 -132 -43 -128 -42 -121 -49 3
-3 16 -1 29 4 13 5 68 23 121 40 54 17 115 42 137 57 42 28 59 25 105 -17 28
-27 34 -14 6 15 -39 43 -69 47 -117 16z"/>
<path d="M1024 2125 c-15 -38 2 -46 93 -43 86 3 88 3 88 28 0 25 -2 25 -88 28
-71 2 -88 0 -93 -13z"/>
<path d="M3613 2108 c-6 -7 -13 -44 -17 -82 -4 -38 -13 -81 -21 -96 -38 -74
-171 -142 -380 -196 -103 -27 -123 -29 -305 -28 l-195 0 -195 57 c-299 88
-494 128 -528 107 -15 -10 -14 -10 4 -5 22 6 136 -27 238 -68 l59 -24 -35 -12
c-20 -7 -44 -21 -53 -31 -17 -19 -32 -20 -258 -20 -132 0 -238 -3 -234 -6 3
-4 115 -7 248 -7 180 -1 244 2 247 11 2 8 8 8 19 -3 10 -11 39 -15 106 -16
179 -1 250 2 268 14 13 8 30 8 66 -1 126 -32 311 -35 461 -7 77 15 86 15 102
0 11 -10 33 -15 61 -13 45 1 161 -11 168 -18 2 -2 -9 -5 -25 -5 -16 -1 -65 -3
-109 -6 -132 -7 -1435 -11 -1435 -4 0 5 -202 10 -464 11 -124 0 -82 11 52 13
67 1 126 7 131 12 12 12 -326 2 -373 -10 -226 -60 1693 -89 2334 -35 137 12
172 18 165 30 -5 7 -232 29 -355 33 l-65 2 63 23 c35 13 62 29 62 37 0 7 7 21
16 30 15 14 19 15 32 2 13 -13 20 -12 66 15 74 43 125 95 132 137 8 42 -10
139 -29 159 -11 11 -16 11 -24 0z m27 -131 c0 -36 -6 -49 -31 -73 -26 -23 -29
-25 -20 -7 6 12 16 44 22 72 13 62 29 66 29 8z m-1339 -177 c5 0 9 -4 9 -10 0
-16 -26 -12 -41 7 -12 15 -12 16 4 10 10 -4 23 -7 28 -7z m188 -62 c36 -6 69
-14 73 -17 4 -3 -73 -6 -172 -6 -98 0 -176 3 -174 7 17 27 165 35 273 16z
m838 6 c-3 -3 -12 -4 -19 -1 -8 3 -5 6 6 6 11 1 17 -2 13 -5z m-46 -31 c12
-15 12 -16 -4 -10 -10 4 -28 7 -40 7 -18 0 -19 2 -7 10 22 14 36 12 51 -7z"/>
<path d="M2330 2100 c8 -5 20 -10 25 -10 6 0 3 5 -5 10 -8 5 -19 10 -25 10 -5
0 -3 -5 5 -10z"/>
<path d="M3100 2069 c-41 -15 -88 -29 -105 -30 -25 -1 -26 -2 -7 -6 13 -3 60
8 105 23 88 30 93 32 86 38 -2 2 -38 -9 -79 -25z"/>
<path d="M2195 2040 c3 -5 11 -10 16 -10 6 0 7 5 4 10 -3 6 -11 10 -16 10 -6
0 -7 -4 -4 -10z"/>
<path d="M2231 2026 c2 -2 22 -6 44 -9 28 -5 34 -4 20 3 -19 8 -73 14 -64 6z"/>
<path d="M2404 1979 c33 -11 61 -17 63 -15 5 5 -100 37 -114 35 -4 -1 19 -10
51 -20z"/>
<path d="M1576 1975 c-3 -8 6 -15 27 -18 41 -6 42 -5 7 15 -23 13 -30 14 -34
3z"/>
<path d="M2484 1953 c7 -8 94 -32 111 -32 14 1 -87 37 -104 38 -8 1 -11 -2 -7
-6z"/>
<path d="M2820 1935 c14 -8 34 -14 45 -14 11 0 2 6 -20 14 -50 18 -57 18 -25
0z"/>
<path d="M951 1937 c3 -4 79 -9 170 -13 90 -3 209 -9 264 -13 97 -7 151 -2
127 13 -13 8 -569 21 -561 13z"/>
<path d="M1685 1916 c28 -13 101 -38 164 -56 62 -17 146 -45 185 -62 104 -43
102 -42 91 -30 -13 14 -168 77 -215 87 -19 4 -41 11 -50 15 -8 5 -42 16 -74
27 l-59 18 154 5 154 6 -166 2 c-92 1 -182 4 -200 7 -31 5 -29 3 16 -19z"/>
<path d="M1530 1917 c0 -5 -11 -23 -25 -41 -30 -39 -31 -46 -7 -46 10 0 25 13
35 29 l16 28 48 -23 c66 -33 193 -64 283 -69 l75 -5 -74 15 c-134 26 -235 64
-278 104 -21 20 -73 26 -73 8z"/>
<path d="M2080 1913 c14 -2 72 -10 130 -18 58 -9 188 -35 289 -60 100 -25 195
-45 210 -45 15 0 31 -3 34 -7 27 -26 349 -23 477 5 99 21 218 61 283 93 60 31
43 30 -25 -1 -148 -66 -319 -100 -513 -100 -146 0 -256 16 -500 74 -186 44
-315 66 -369 65 -25 -1 -31 -3 -16 -6z"/>
<path d="M2610 1917 c0 -3 15 -10 32 -16 18 -6 28 -7 23 -2 -12 10 -55 25 -55
18z"/>
<path d="M2898 1913 c6 -2 18 -2 25 0 6 3 1 5 -13 5 -14 0 -19 -2 -12 -5z"/>
<path d="M2940 1906 c0 -9 39 -13 51 -5 10 6 4 9 -18 9 -18 0 -33 -2 -33 -4z"/>
<path d="M1900 1885 c24 -8 46 -12 49 -10 2 3 -2 6 -10 6 -8 1 4 5 26 9 33 6
27 7 -35 8 l-75 1 45 -14z"/>
<path d="M2038 1893 c7 -3 16 -2 19 1 4 3 -2 6 -13 5 -11 0 -14 -3 -6 -6z"/>
<path d="M2705 1886 c17 -8 32 -12 34 -10 7 6 -2 11 -34 17 l-30 6 30 -13z"/>
<path d="M2108 1883 c12 -2 30 -2 40 0 9 3 -1 5 -23 4 -22 0 -30 -2 -17 -4z"/>
<path d="M2236 1866 c40 -8 101 -22 135 -31 35 -9 71 -18 79 -20 8 -2 69 -18
135 -34 66 -17 126 -31 135 -30 37 2 -425 116 -500 123 -49 5 -48 4 16 -8z"/>
<path d="M1555 1849 c-4 -6 -5 -12 -2 -15 2 -3 7 2 10 11 7 17 1 20 -8 4z"/>
<path d="M1275 1840 c-72 -6 -67 -7 58 -8 86 -1 137 2 137 8 0 11 -61 11 -195
0z"/>
<path d="M2060 1826 c0 -2 7 -7 16 -10 8 -3 12 -2 9 4 -6 10 -25 14 -25 6z"/>
<path d="M1200 1810 c231 -19 259 -20 264 -12 7 11 -144 23 -268 21 l-91 -2
95 -7z"/>
<path d="M1480 1801 c0 -11 10 -31 23 -44 19 -21 34 -26 102 -30 75 -5 78 -5
40 7 -59 19 -104 44 -118 66 -16 26 -47 26 -47 1z m65 -41 c3 -5 2 -10 -4 -10
-5 0 -13 5 -16 10 -3 6 -2 10 4 10 5 0 13 -4 16 -10z"/>
<path d="M1580 1790 c59 -52 107 -60 344 -58 l211 1 -220 7 c-230 8 -269 15
-338 61 -32 20 -32 20 3 -11z"/>
<path d="M1658 1813 c7 -3 16 -2 19 1 4 3 -2 6 -13 5 -11 0 -14 -3 -6 -6z"/>
<path d="M2145 1780 c17 -11 35 -20 40 -20 6 0 -5 9 -23 20 -42 26 -56 26 -17
0z"/>
<path d="M3165 1760 c-27 -7 -27 -8 -5 -8 14 0 39 4 55 8 27 7 27 8 5 8 -14 0
-38 -4 -55 -8z"/>
<path d="M1267 1754 c-1 -1 -103 -5 -227 -9 -555 -19 -582 -23 -130 -20 250 2
478 5 505 8 28 3 57 5 65 6 12 1 12 4 -2 12 -14 7 -202 10 -211 3z"/>
<path d="M2780 1739 c43 -7 285 -11 265 -4 -5 2 -77 5 -160 7 -85 3 -131 1
-105 -3z"/>
<path d="M3078 1743 c12 -2 30 -2 40 0 9 3 -1 5 -23 4 -22 0 -30 -2 -17 -4z"/>
<path d="M433 1703 c9 -2 23 -2 30 0 6 3 -1 5 -18 5 -16 0 -22 -2 -12 -5z"/>
<path d="M640 1700 c91 -4 233 -11 315 -14 83 -4 162 -9 176 -12 14 -3 39 1
55 8 29 12 28 12 -26 18 -30 3 -197 6 -370 7 -275 0 -294 -1 -150 -7z"/>
<path d="M1649 1435 c-28 -15 -41 -42 -60 -117 -10 -41 -9 -52 5 -73 15 -22
24 -25 76 -25 98 0 125 24 149 132 12 52 7 74 -20 88 -26 15 -120 11 -150 -5z
m146 -24 c3 -5 1 -12 -4 -15 -5 -3 -11 1 -15 9 -6 16 9 21 19 6z m-33 -50 c-1
-19 -8 -46 -15 -60 -10 -22 -19 -26 -57 -26 l-45 0 2 35 c1 20 7 48 12 63 10
26 15 28 58 25 48 -3 48 -3 45 -37z m-124 -109 c-12 -5 -39 19 -33 29 3 4 14
1 23 -9 10 -9 14 -19 10 -20z"/>
<path d="M1851 1347 c-13 -56 -26 -108 -28 -114 -4 -9 5 -13 25 -13 28 0 31 3
41 50 13 61 14 90 3 90 -5 0 -7 14 -4 30 6 39 26 38 46 -2 20 -40 20 -62 0
-25 -8 15 -20 25 -26 21 -5 -4 -6 -9 -1 -13 5 -3 22 -37 39 -76 27 -63 33 -70
58 -70 28 0 29 2 56 113 l27 112 -27 0 c-26 0 -29 -5 -40 -52 -6 -29 -14 -61
-17 -71 -3 -13 -15 3 -38 53 -30 62 -37 70 -62 70 -27 0 -29 -3 -52 -103z
m174 -44 c-4 -10 -8 -25 -9 -32 -5 -26 -21 -22 -33 8 -8 23 -8 28 2 25 7 -3
16 -1 20 5 11 18 28 12 20 -6z"/>
<path d="M2136 1435 c-18 -14 -56 -129 -56 -172 0 -32 28 -43 108 -43 66 0 70
1 74 25 5 25 4 25 -59 25 -61 0 -64 1 -61 22 3 20 8 22 64 19 59 -2 62 -1 66
23 5 26 4 26 -54 26 -50 0 -63 -4 -79 -22 -11 -14 -18 -18 -19 -10 0 8 13 27
29 43 26 26 37 29 89 29 56 0 60 2 64 25 5 25 5 25 -71 25 -50 -1 -82 -6 -95
-15z m0 -183 c-4 -3 -14 2 -24 12 -16 18 -16 18 6 6 13 -6 21 -14 18 -18z"/>
<path d="M2447 1430 c-14 -11 -29 -35 -32 -52 -10 -43 20 -68 82 -68 37 0 44
-3 41 -17 -3 -15 -16 -19 -76 -21 -39 -2 -72 -7 -72 -12 0 -4 -3 -15 -6 -24
-5 -14 5 -16 74 -16 70 0 84 3 106 23 15 12 29 36 32 53 8 44 -15 64 -77 64
-43 0 -50 3 -47 18 3 14 16 18 75 20 66 3 71 4 76 27 4 25 4 25 -73 25 -62 0
-82 -4 -103 -20z"/>
<path d="M2640 1441 c0 -5 -3 -16 -6 -25 -5 -13 1 -16 34 -16 l39 0 -17 -62
c-34 -125 -34 -118 -2 -118 27 0 30 4 41 53 27 124 28 126 68 129 26 2 38 9
44 26 8 22 8 22 -96 22 -58 0 -105 -4 -105 -9z m100 -31 c0 -5 -4 -10 -10 -10
-5 0 -10 5 -10 10 0 6 5 10 10 10 6 0 10 -4 10 -10z"/>
<path d="M2880 1432 c-15 -12 -29 -43 -41 -92 -16 -67 -17 -77 -3 -97 13 -20
23 -23 88 -23 58 0 75 3 80 16 12 30 5 34 -59 34 -36 0 -65 4 -65 9 0 30 12
36 66 32 40 -2 59 1 65 10 20 32 10 39 -52 39 -52 0 -60 2 -55 16 3 9 6 18 6
20 0 2 29 4 64 4 63 0 76 7 76 41 0 5 -33 9 -74 9 -56 0 -79 -4 -96 -18z m10
-86 c0 -3 -4 -8 -10 -11 -5 -3 -10 -1 -10 4 0 6 5 11 10 11 6 0 10 -2 10 -4z"/>
<path d="M3061 1355 c-13 -52 -25 -104 -28 -115 -4 -17 0 -20 25 -20 25 0 30
5 36 30 5 29 8 30 55 30 84 0 107 19 127 103 4 20 1 34 -11 47 -15 17 -31 20
-100 20 l-81 0 -23 -95z m184 55 c3 -5 1 -10 -4 -10 -6 0 -11 5 -11 10 0 6 2
10 4 10 3 0 8 -4 11 -10z m-25 -26 c0 -38 -20 -54 -66 -54 -38 0 -45 3 -40 16
3 9 6 24 6 35 0 16 7 19 50 19 39 0 50 -4 50 -16z m-120 -73 c0 -6 -4 -13 -10
-16 -5 -3 -10 1 -10 9 0 9 5 16 10 16 6 0 10 -4 10 -9z"/>
</g>
</svg>
